<svg xmlns="http://www.w3.org/2000/svg" viewBox="0 0 638.72 224.42"><defs><style>.cls-1{fill:none;stroke:#543324;stroke-miterlimit:10;stroke-width:6.02px;fill-rule:evenodd;}.cls-2,.cls-3{fill:#543324;}.cls-3{font-size:12.39px;font-family:Poppins-Regular, Poppins;}</style></defs><g id="Layer_2" data-name="Layer 2"><g id="Layer_1-2" data-name="Layer 1"><path class="cls-1" d="M52.22,196V82.69L14.38,60.85C9,57.71,3,61.21,3,67.18v90.49c0,7,.72,10.31,7.48,14.22l6.25,3.6h0Z"/><path class="cls-1" d="M101.13,183.57V120.83c0-7-.72-10.31-7.48-14.22L52.22,82.69V196L90.6,218.12l2.25,1.31a18.83,18.83,0,0,0,7.56,1.89,23.75,23.75,0,0,0,.72-7Z"/><path class="cls-1" d="M111.81,218c.23-.1.45-.22.67-.34l0,0,30.34-17.51c6.75-3.9,7.48-7.24,7.48-14.22V92.42c0-7-.73-10.31-7.48-14.22L101.15,54.13V183.57h0v30.76a23.75,23.75,0,0,1-.72,7h.72a18.81,18.81,0,0,0,8.57-2.05l1.69-1,.42-.29"/><path class="cls-1" d="M52.22,82.69l41.43,23.92c6.76,3.91,7.48,7.25,7.48,14.22v62.74h0V54.13L63.59,32.44c-5.43-3.14-11.37.36-11.37,6.33Z"/><path class="cls-1" d="M101.15,54.13,142.86,78.2c6.75,3.91,7.48,7.25,7.48,14.22v93.5c0,7-.73,10.32-7.48,14.22l48.93-28.25c6.76-3.91,7.48-7.25,7.48-14.22V64.17c0-7-.72-10.32-7.48-14.22L112.52,4.19c-5.43-3.14-11.37.36-11.37,6.32Z"/><path class="cls-2" d="M232.56,166.76v-3.52h7.65c.77-.77,1.23-1.07,2-1.84V65.07l-2-2h-7.65V59.55h51.3c41.66,0,46.56,52.23-4.28,52.23a49.38,49.38,0,0,0,11.79,4.9l29.86,44.41c1.38.77,2.45,1.38,4,2.15h6.59v3.52H304.23l-36.6-55h-7.35V161.4l1.84,1.84h7.81v3.52ZM260.28,65.07v43.19h15.77c29.71,0,29.71-44.72,0-45l-13.93-.15C261.35,63.84,261,64.3,260.28,65.07Z"/><path class="cls-2" d="M355.08,97.38l1.07,3.07v42.73c0,13.63,7.2,20.21,15.32,20.21,10.87,0,23.28-11.48,23.28-33.23V107c-1.07-.76-1.53-1.07-2.45-1.84L385.41,107l-.92-3.37,23.58-6.28,1.07,3.07V159c.92.77,1.38,1.23,2.45,2l6.9-1.84.76,3.37-23.43,6.28-1.07-3.06V149.15c-5.51,13.32-16.7,19.6-27.26,19.6-13.33,0-25.73-9.65-25.73-27.26V107a14,14,0,0,1-2.45-1.84L332.42,107l-.92-3.37Z"/><path class="cls-2" d="M449.58,57.56l1.22,3.22V115.3c6-11,17.62-16.69,29.1-16.69,16.54,0,33.08,11.49,33.08,34.3,0,21.75-17.61,35.69-38.9,35.69-15.31,0-28.79-7.51-34.3-21.29v19.45h-3.53V67.37c-1.07-.77-1.38-1.08-2.45-1.84l-6.89,1.84L426,64Zm24.66,107.67c13.78,0,23.43-12.56,23.43-32.32,0-19-11.49-28.33-23.13-28.33-11.79,0-23.74,9.65-23.74,28.33C450.8,152.67,460.6,165.23,474.24,165.23Z"/><path class="cls-2" d="M517.43,103.51,541,97.23l1.23,3.22v61a21.11,21.11,0,0,1,1.83,1.84h7.82v3.52H518v-3.52h7.66c.76-.77,1.22-1.07,2-1.84V107c-1.08-.76-1.38-1.07-2.45-1.84l-6.9,1.84Z"/><path class="cls-2" d="M563.37,99.22h34.92v3.52H591.4c-.31.62-.46.77-.77,1.38l14.86,22.21,15.93-22a14.69,14.69,0,0,0-.77-1.54h-6.28V99.22h21.14v3.52h-6.13c-1.38.62-2.6,1.23-4,2l-17.92,24.66,21.13,31.7c1.38.77,2.61,1.38,4,2.15h6.12v3.52H603.65v-3.52H611a4.89,4.89,0,0,0,.77-1.53l-14.86-22.06L581,161.71a7.08,7.08,0,0,1,.77,1.53h6v3.52H566.43v-3.52H573c1.38-.61,2.6-1.38,4-2l17.92-24.81-21.14-31.55c-1.37-.77-2.6-1.38-4.13-2.15h-6.28Z"/><path class="cls-2" d="M544.14,78.54l-9.48-9.49-9.49,9.49L534.66,88ZM535,68l10.21,10.21.36.36-.36.36L535,89.12l-.36.36-.37-.36L524.08,78.9l-.36-.36.36-.36L534.29,68l.37-.36Z"/><path class="cls-2" d="M535.16,68.37s-.33,3.49,2.4,5.23l.46.29-.31.43S535,78,539.46,78v1c-5.3,0-3.61-3.62-2.86-4.88a7,7,0,0,1-2.45-5.88Z"/><polygon class="cls-2" points="537.55 73.59 545.13 78.1 544.61 78.98 537.03 74.47 537.55 73.59"/><path class="cls-2" d="M535.14,68.29s.35,3.73-2.45,5.88c.75,1.26,2.43,4.88-2.86,4.88V78c4.41,0,1.75-3.7,1.74-3.71l-.3-.43.45-.29c2.73-1.74,2.4-5.22,2.4-5.23Z"/><polygon class="cls-2" points="532.25 74.47 524.68 78.98 524.15 78.1 531.73 73.59 532.25 74.47"/><path class="cls-2" d="M534.15,88.8a7,7,0,0,1,2.45-5.88c-.75-1.27-2.44-4.89,2.86-4.89v1c-4.42,0-1.76,3.7-1.75,3.71l.31.44-.46.28c-2.73,1.75-2.4,5.22-2.4,5.23Z"/><polygon class="cls-2" points="537.03 82.62 544.61 78.11 545.13 78.98 537.55 83.49 537.03 82.62"/><path class="cls-2" d="M534.12,88.71s.33-3.48-2.4-5.23l-.45-.28.3-.44s2.67-3.71-1.74-3.71V78c5.29,0,3.61,3.62,2.86,4.89,2.8,2.15,2.45,5.87,2.45,5.88Z"/><polygon class="cls-2" points="531.73 83.49 524.15 78.98 524.68 78.11 532.25 82.62 531.73 83.49"/><text class="cls-3" transform="translate(232.56 193.53)">Interior design • Project management • Personal interior shopping</text></g></g></svg>