<svg xmlns="http://www.w3.org/2000/svg" viewBox="0 0 22.68 25.16"><defs><style>.cls-1{fill:none;stroke:#543324;stroke-miterlimit:10;stroke-width:0.68px;fill-rule:evenodd;}</style></defs><g id="Layer_2" data-name="Layer 2"><g id="Layer_1-2" data-name="Layer 1"><path class="cls-1" d="M5.85,22V9.27L1.61,6.82a.82.82,0,0,0-1.27.71V17.67a1.46,1.46,0,0,0,.84,1.6l.7.4h0Z"/><path class="cls-1" d="M11.34,20.58v-7A1.45,1.45,0,0,0,10.5,12L5.85,9.27V22l4.31,2.48.25.15a2.17,2.17,0,0,0,.85.21,3,3,0,0,0,.08-.78Z"/><path class="cls-1" d="M12.53,24.44l.08,0h0l3.4-2a1.45,1.45,0,0,0,.84-1.59V10.36A1.45,1.45,0,0,0,16,8.77l-4.67-2.7V20.58h0V24a3,3,0,0,1-.08.78h.08a2.09,2.09,0,0,0,1-.23l.19-.11,0,0"/><path class="cls-1" d="M5.85,9.27,10.5,12a1.45,1.45,0,0,1,.84,1.59v7h0V6.07L7.13,3.64a.82.82,0,0,0-1.28.71Z"/><path class="cls-1" d="M11.34,6.07,16,8.77a1.45,1.45,0,0,1,.84,1.59V20.84A1.45,1.45,0,0,1,16,22.43l5.49-3.16a1.46,1.46,0,0,0,.84-1.6V7.19A1.45,1.45,0,0,0,21.5,5.6L12.61.47a.82.82,0,0,0-1.27.71Z"/></g></g></svg>